<svg width="92" height="120" viewBox="0 0 92 120" fill="none" xmlns="http://www.w3.org/2000/svg">
<path d="M12.4335 120H79.5675C85.9627 120 91.2418 114.992 91.2418 108.835V27.4076C91.2418 21.2515 85.9627 16.2096 79.5675 16.2096H68.9838V9.91648C68.9886 9.27667 68.7381 8.66239 68.2883 8.20876C67.8375 7.75513 67.2251 7.50091 66.5862 7.49997H57.3445C55.5206 3.14514 50.9815 -5.62298e-06 45.8763 -5.62298e-06H45.8375C40.8703 -0.0415881 36.369 2.92116 34.443 7.49997H25.2835C23.9302 7.49146 22.8169 8.5641 22.7743 9.91648V16.2096H12.4335C6.03833 16.2096 0.758301 21.2515 0.758301 27.4076V108.835C0.758301 114.992 6.03833 120 12.4335 120ZM27.613 12.3387H36.1658C37.2696 12.3387 38.2336 11.5911 38.5086 10.5213C39.3695 7.17392 42.389 4.83585 45.8451 4.83869H45.8696C49.4221 4.83869 52.5077 7.19093 53.208 10.4278C53.4481 11.542 54.4328 12.3377 55.5725 12.3387H64.1452V24.4354H27.613V12.3387ZM5.59699 27.4076C5.59699 23.9194 8.70623 21.0483 12.4335 21.0483H22.7743V26.7829C22.8103 28.1504 23.915 29.2476 25.2835 29.2741H66.5862C67.932 29.2382 68.9999 28.1287 68.9838 26.7829V21.0483H79.5675C83.2939 21.0483 86.4031 23.9194 86.4031 27.4076V108.835C86.4031 112.324 83.2939 115.161 79.5675 115.161H12.4335C8.70623 115.161 5.59699 112.324 5.59699 108.835V27.4076Z" fill="#DCE0EC"/>
</svg>
